<svg width="23" height="27" viewBox="0 0 23 27" fill="none" xmlns="http://www.w3.org/2000/svg">
<path d="M2.8686 8.79311C2.8686 13.6293 6.75271 17.5862 11.5 17.5862C16.2472 17.5862 20.1313 13.6293 20.1313 8.79311C20.1313 3.9569 16.2472 0 11.5 0C6.75271 0 2.8686 3.9569 2.8686 8.79311ZM18.1004 8.79311C18.1004 12.4914 15.1302 15.5172 11.5 15.5172C7.86971 15.5172 4.89951 12.4914 4.89951 8.79311C4.89951 5.09483 7.86971 2.06897 11.5 2.06897C15.1302 2.06897 18.1004 5.09483 18.1004 8.79311Z" fill="black"/>
<path d="M1.44702 27C4.13797 24.2586 7.69205 22.7586 11.5 22.7586C15.3079 22.7586 18.862 24.2586 21.553 27L23 25.5259C19.9283 22.4224 15.8411 20.6897 11.5 20.6897C7.15894 20.6897 3.07174 22.4224 0 25.5259L1.44702 27Z" fill="black"/>
</svg>
